STARTFONT 2.1
FONT -Monotype-Plantin-Bold-I-Normal--33-240-100-100-P-205-iso8859-5
SIZE 24 100 100
FONTBOUNDINGBOX 48 37 -7 -7

STARTPROPERTIES 24
FOUNDRY "Monotype"
FAMILY_NAME "Plantin"
WEIGHT_NAME "Bold"
SLANT "I"
SETWIDTH_NAME "Normal"
ADD_STYLE_NAME ""
PIXEL_SIZE 33
POINT_SIZE 240
RESOLUTION_X 100
RESOLUTION_Y 100
SPACING "P"
AVERAGE_WIDTH 205
CHARSET_REGISTRY "iso8859"
CHARSET_ENCODING "5"
FACE_NAME "Plantin Bold Inclined ISO Latin Cyrillic"
_DEC_DEVICE_FONTNAMES "PS=plantin-bin-latcyrillic"
COPYRIGHT "Copyright (c) 1993 Monotype Typography Ltd."
CAP_HEIGHT 25
X_HEIGHT 16
WEIGHT 10
QUAD_WIDTH 24
DEFAULT_CHAR 160
FONT_DESCENT 7
FONT_ASCENT 30
ENDPROPERTIES

CHARS 191

STARTCHAR space
ENCODING 32
SWIDTH 250 0
DWIDTH 8 0
BBX 0 0 0 0
BITMAP
ENDCHAR

STARTCHAR exclam
ENCODING 33
SWIDTH 365 0
DWIDTH 12 0
BBX 11 23 2 0
BITMAP
03E0
03E0
03E0
03C0
03C0
0780
0780
0780
0700
0700
0E00
0E00
0C00
0C00
0800
0000
0000
0000
7000
F800
F800
F800
7000
ENDCHAR

STARTCHAR quotedbl
ENCODING 34
SWIDTH 552 0
DWIDTH 18 0
BBX 13 10 6 12
BITMAP
3838
7C78
78F8
78F8
F0F0
F0F0
E0E0
E0E0
C0C0
C080
ENDCHAR

STARTCHAR numbersign
ENCODING 35
SWIDTH 500 0
DWIDTH 17 0
BBX 15 23 1 -1
BITMAP
060C
060C
061C
0C18
0C18
0C18
0C18
FFFE
FFFE
1830
1830
1830
1870
3060
FFFE
FFFE
3060
30E0
60C0
60C0
60C0
60C0
E1C0
ENDCHAR

STARTCHAR dollar
ENCODING 36
SWIDTH 542 0
DWIDTH 18 0
BBX 18 26 1 -3
BITMAP
000C00
01FC00
03DF00
071380
0E31C0
0E31C0
1E21C0
1F61C0
0FE000
0FC000
07E000
03F800
01FC00
00FC00
01BE00
01BE00
E11E00
E31E00
E31C00
E21C00
763800
3EF000
1FC000
0C0000
0C0000
080000
ENDCHAR

STARTCHAR percent
ENCODING 37
SWIDTH 833 0
DWIDTH 27 0
BBX 27 24 0 -1
BITMAP
07C003C0
1CE00380
3CF00700
78F00E00
78F01C00
F8F03800
F9F07000
F1E0E000
F1E1C000
F3C38000
73878000
3E0F0000
001E0F80
001C39C0
003879E0
0070F1E0
00E0F1E0
01C1F3E0
0381F3E0
0701E3C0
0E01E3C0
1E01E780
3C00E700
78007C00
ENDCHAR

STARTCHAR ampersand
ENCODING 38
SWIDTH 958 0
DWIDTH 32 0
BBX 29 24 3 -1
BITMAP
003F0000
01FFC000
07E1E000
07C1E000
0F81E0E0
0F8000F0
0F8000F8
07800078
03E0F818
0FC1FE18
1E03FF38
3C07FFF0
7C041FE0
F80C0FC0
F80F0C00
F80F8400
F8078400
FC030400
FC000C00
7F001800
3FC07000
1FFFE000
07FF8000
00FC0000
ENDCHAR

STARTCHAR quoteright
ENCODING 39
SWIDTH 365 0
DWIDTH 12 0
BBX 7 10 3 13
BITMAP
3C
3E
3E
3E
1E
0E
1C
38
F0
C0
ENDCHAR

STARTCHAR parenleft
ENCODING 40
SWIDTH 437 0
DWIDTH 14 0
BBX 15 29 3 -6
BITMAP
000E
003C
00F0
01E0
03C0
0780
0F80
1F00
1F00
3E00
3E00
7C00
7C00
7C00
F800
F800
F800
F000
F000
F000
F000
F000
7000
7000
3000
3800
1800
0C00
0400
ENDCHAR

STARTCHAR parenright
ENCODING 41
SWIDTH 437 0
DWIDTH 14 0
BBX 14 29 -3 -6
BITMAP
0080
00C0
0060
0070
0030
0038
0038
003C
003C
003C
003C
003C
007C
007C
007C
007C
00F8
00F8
00F8
01F0
01F0
03E0
03C0
07C0
0F80
1F00
3C00
F800
E000
ENDCHAR

STARTCHAR asterisk
ENCODING 42
SWIDTH 510 0
DWIDTH 17 0
BBX 15 15 2 8
BITMAP
00C0
00C0
01C0
41C0
FBC0
7F80
3FFC
0FFE
1FFC
1FC0
3FC0
79C0
61C0
00C0
0060
ENDCHAR

STARTCHAR plus
ENCODING 43
SWIDTH 667 0
DWIDTH 22 0
BBX 18 17 2 2
BITMAP
01C000
01C000
01C000
01C000
01C000
01C000
01C000
FFFFC0
FFFFC0
FFFFC0
01C000
01C000
01C000
01C000
01C000
01C000
01C000
ENDCHAR

STARTCHAR comma
ENCODING 44
SWIDTH 365 0
DWIDTH 12 0
BBX 8 11 0 -6
BITMAP
0C
3E
3F
3F
1F
0F
0E
0E
1C
78
E0
ENDCHAR

STARTCHAR minus
ENCODING 45
SWIDTH 667 0
DWIDTH 22 0
BBX 18 3 2 9
BITMAP
FFFFC0
FFFFC0
FFFFC0
ENDCHAR

STARTCHAR period
ENCODING 46
SWIDTH 292 0
DWIDTH 10 0
BBX 5 5 2 0
BITMAP
70
F8
F8
F8
70
ENDCHAR

STARTCHAR slash
ENCODING 47
SWIDTH 281 0
DWIDTH 9 0
BBX 17 22 -3 0
BITMAP
000380
000700
000600
000C00
001C00
001800
003800
003000
006000
00E000
00C000
018000
038000
030000
070000
060000
0C0000
1C0000
180000
300000
300000
E00000
ENDCHAR

STARTCHAR zero
ENCODING 48
SWIDTH 542 0
DWIDTH 18 0
BBX 16 22 2 0
BITMAP
01F8
079C
0F0E
0F0E
1E0F
3E0F
3E0F
7C0F
7C1F
7C1F
7C1F
F81E
F83E
F83E
F03C
F07C
F07C
F078
70F0
70F0
39C0
1F80
ENDCHAR

STARTCHAR one
ENCODING 49
SWIDTH 542 0
DWIDTH 18 0
BBX 14 22 2 0
BITMAP
001C
0078
01F8
0FF8
00F8
00F0
01F0
01F0
01E0
03E0
03E0
03E0
03C0
07C0
07C0
07C0
0780
0F80
0F80
1FC0
7FF0
FFE0
ENDCHAR

STARTCHAR two
ENCODING 50
SWIDTH 542 0
DWIDTH 18 0
BBX 19 22 -1 0
BITMAP
003E00
01FF80
03FFC0
0E07E0
0403E0
0003E0
0003E0
0003E0
0007C0
000780
000F00
001E00
003C00
007000
00E000
018000
070000
0C0180
1FFF80
3FFF00
7FFF00
FFFF00
ENDCHAR

STARTCHAR three
ENCODING 51
SWIDTH 542 0
DWIDTH 18 0
BBX 19 22 -1 0
BITMAP
001F00
007FC0
00FFE0
0183E0
0101E0
0001E0
0001C0
000380
000700
001C00
01FF00
003F00
000F80
000F80
000F80
000F80
000F00
000F00
001E00
603C00
F8F800
7FE000
ENDCHAR

STARTCHAR four
ENCODING 52
SWIDTH 542 0
DWIDTH 18 0
BBX 17 22 1 0
BITMAP
000F80
001F80
003F00
006F00
00DF00
019E00
033E00
063E00
0C3E00
183C00
307C00
607800
FFFF80
FFFF00
FFFF00
00F800
00F000
01F000
01F000
01E000
01E000
03E000
ENDCHAR

STARTCHAR five
ENCODING 53
SWIDTH 542 0
DWIDTH 18 0
BBX 19 23 0 0
BITMAP
000060
00FFC0
00FFC0
00FFC0
01FF80
010000
030000
03C000
03F800
07FC00
07FE00
01FF00
003F00
001F00
000F00
000700
000700
000700
000E00
600C00
783800
FFF000
3F8000
ENDCHAR

STARTCHAR six
ENCODING 54
SWIDTH 542 0
DWIDTH 18 0
BBX 18 22 2 0
BITMAP
0007C0
003FC0
00F800
03E000
07C000
0F8000
1F0000
3E0000
3E0000
7DF000
7FFC00
FC3C00
F81E00
F81E00
F81E00
F03E00
F03E00
F03E00
707C00
707800
38F000
1FC000
ENDCHAR

STARTCHAR seven
ENCODING 55
SWIDTH 542 0
DWIDTH 18 0
BBX 15 22 4 0
BITMAP
3FFE
7FFE
7FFC
7FF8
C018
C030
0030
0060
00E0
00C0
0180
0180
0300
0700
0600
0C00
0C00
1800
1800
3000
7000
6000
ENDCHAR

STARTCHAR eight
ENCODING 56
SWIDTH 542 0
DWIDTH 18 0
BBX 18 22 1 0
BITMAP
00FE00
03C780
070380
0F01C0
0F01C0
0F01C0
0F8380
07C780
07EE00
03FC00
01F800
0FF800
3E7C00
787E00
F03E00
F01E00
E01E00
E01E00
E01C00
703C00
38F000
0FE000
ENDCHAR

STARTCHAR nine
ENCODING 57
SWIDTH 542 0
DWIDTH 18 0
BBX 18 22 0 0
BITMAP
00FE00
03C700
078380
0F8380
1F03C0
1F03C0
1F03C0
1E07C0
1E07C0
1F07C0
0F0FC0
07FF80
03EF80
001F00
001F00
003E00
007C00
00F800
01F000
0FC000
FF0000
700000
ENDCHAR

STARTCHAR colon
ENCODING 58
SWIDTH 365 0
DWIDTH 12 0
BBX 8 15 2 0
BITMAP
0E
1F
1F
1F
0E
00
00
00
00
00
70
F8
F8
F8
70
ENDCHAR

STARTCHAR semicolon
ENCODING 59
SWIDTH 365 0
DWIDTH 12 0
BBX 10 21 0 -6
BITMAP
0380
07C0
07C0
07C0
0380
0000
0000
0000
0000
0000
1E00
3E00
3F00
3F00
1F00
0E00
0E00
0C00
1C00
F000
C000
ENDCHAR

STARTCHAR less
ENCODING 60
SWIDTH 667 0
DWIDTH 22 0
BBX 18 18 2 2
BITMAP
000040
0001C0
000FC0
003FC0
01FF00
07FC00
1FE000
FF8000
F80000
FC0000
FF0000
3FE000
0FF800
01FF00
007FC0
000FC0
0003C0
000040
ENDCHAR

STARTCHAR equal
ENCODING 61
SWIDTH 667 0
DWIDTH 22 0
BBX 18 11 2 5
BITMAP
FFFFC0
FFFFC0
FFFFC0
000000
000000
000000
000000
000000
FFFFC0
FFFFC0
FFFFC0
ENDCHAR

STARTCHAR greater
ENCODING 62
SWIDTH 667 0
DWIDTH 22 0
BBX 18 18 2 2
BITMAP
800000
E00000
FC0000
FF0000
3FE000
0FF800
01FE00
007FC0
0007C0
000FC0
003FC0
01FF00
07F800
3FE000
FF8000
FC0000
F00000
800000
ENDCHAR

STARTCHAR question
ENCODING 63
SWIDTH 510 0
DWIDTH 17 0
BBX 14 23 2 0
BITMAP
07C0
0FF0
0FF8
07F8
001C
000C
000C
000C
001C
0FFC
0FF8
1FF8
1FF0
1FC0
1C00
3000
0000
0000
7000
F800
F800
F800
7000
ENDCHAR

STARTCHAR at
ENCODING 64
SWIDTH 833 0
DWIDTH 27 0
BBX 27 29 0 -7
BITMAP
003FE000
00E03800
03800C00
06000200
0C000100
18000080
18000080
300EF040
20397040
6071F040
6071E040
40E1E040
C0E1E040
C1E1C040
C1C3C040
C3C3C080
C3C7C080
C3C78100
43CB8200
43F78420
63E39820
21C3E040
30000040
10000080
18000100
0C000200
03000C00
01C07000
003F8000
ENDCHAR

STARTCHAR A
ENCODING 65
SWIDTH 708 0
DWIDTH 23 0
BBX 24 23 -2 0
BITMAP
00001F
00003F
00007E
0000FE
0001BE
00033E
00073E
00067E
000C7E
00187E
00307E
00607E
00C07C
00FFFC
01FFFC
03007C
07007C
0E00FC
0C00FC
1E00FC
3E01FC
7F07FF
FF07FE
ENDCHAR

STARTCHAR B
ENCODING 66
SWIDTH 750 0
DWIDTH 25 0
BBX 25 23 0 0
BITMAP
03FFFC00
01FC7F00
00FC1F80
00F80F80
01F80F80
01F80F80
01F01F80
01F01F80
03F03F00
03F0FC00
03FFE000
03E1F800
07E07C00
07E03E00
07C03F00
0FC03F00
0FC03F00
0FC03F00
0F803E00
1F807E00
3FC0FC00
7FE3F800
FFFFE000
ENDCHAR

STARTCHAR C
ENCODING 67
SWIDTH 750 0
DWIDTH 25 0
BBX 24 23 3 0
BITMAP
003FF8
00FC3E
03F01F
07C00F
0F8007
1F8006
1F0006
3E0000
7E0000
7E0000
7C0000
FC0000
FC0000
FC0000
FC0000
FC0018
7C0038
7C0078
7E0070
3F00F0
1F83F0
07FFC0
01FC00
ENDCHAR

STARTCHAR D
ENCODING 68
SWIDTH 802 0
DWIDTH 26 0
BBX 26 23 0 0
BITMAP
03FFE000
07FFFC00
01FC7E00
01F81F00
01F81F00
01F80F80
01F80F80
01F00FC0
03F00FC0
03F00FC0
03F00FC0
03E00FC0
07E00FC0
07E00FC0
07C01F80
07C01F80
0FC01F00
0FC03F00
0F807E00
1F80FC00
3FC1F800
7FFFF000
FFFF8000
ENDCHAR

STARTCHAR E
ENCODING 69
SWIDTH 740 0
DWIDTH 24 0
BBX 26 23 0 0
BITMAP
07FFFFC0
03FC0780
01F80380
01F80380
01F80180
01F00000
01F00000
03F01C00
03F01800
03E07800
03FFF800
07E0F000
07E07000
07C03000
0FC03000
0FC00000
0F800000
0F800600
1F800E00
1F801C00
3F807C00
7FE1FC00
FFFFF800
ENDCHAR

STARTCHAR F
ENCODING 70
SWIDTH 667 0
DWIDTH 22 0
BBX 25 23 0 0
BITMAP
07FFFF80
03FC1F00
01F80700
01F80700
01F80600
01F00000
01F00000
03F01800
03F03000
03E1F000
03FFF000
07E1F000
07E0E000
07C06000
0FC06000
0FC00000
0FC00000
0F800000
1F800000
1F800000
3FC00000
7FF00000
FFE00000
ENDCHAR

STARTCHAR G
ENCODING 71
SWIDTH 833 0
DWIDTH 27 0
BBX 26 23 3 0
BITMAP
000FF000
007FFF00
01F80F80
03E00780
0FC00380
1F800380
3F000100
3F000000
7E000000
7E000000
7C000000
FC01FFC0
FC01FFC0
FC007E00
FC007E00
FC007C00
7C00FC00
7C00FC00
3E00F800
3F01F800
0F81F800
07FFF000
007F0000
ENDCHAR

STARTCHAR H
ENCODING 72
SWIDTH 844 0
DWIDTH 28 0
BBX 29 23 1 0
BITMAP
07FE1FF8
07FE1FF8
03F80FE0
03F007C0
03F00FC0
03F00FC0
03E00F80
07E00F80
07E01F80
07C01F80
07FFFF00
0FFFFF00
0FC03F00
0F803E00
0F803E00
1F807E00
1F007E00
1F007C00
3F007C00
3F00FC00
7F01FC00
FFC3FF00
FF87FE00
ENDCHAR

STARTCHAR I
ENCODING 73
SWIDTH 417 0
DWIDTH 14 0
BBX 16 23 0 0
BITMAP
03FF
03FF
01FC
01F8
01F8
01F8
01F0
03F0
03F0
03E0
03E0
07E0
07E0
07C0
07C0
0FC0
0FC0
0F80
1F80
1F80
3FC0
FFE0
FFE0
ENDCHAR

STARTCHAR J
ENCODING 74
SWIDTH 396 0
DWIDTH 13 0
BBX 24 29 -7 -6
BITMAP
000FFF
000FFE
0003FC
0003F8
0003F0
0003F0
0003E0
0007E0
0007E0
0007C0
0007C0
000FC0
000FC0
000F80
001F80
001F80
001F00
001F00
003F00
003F00
003E00
003E00
007E00
707C00
F87C00
F8F800
F8F000
7FE000
3F0000
ENDCHAR

STARTCHAR K
ENCODING 75
SWIDTH 740 0
DWIDTH 24 0
BBX 28 23 0 0
BITMAP
07FF07F0
07FF0FF0
01FC03C0
01F80780
01F80600
01F80C00
01F03800
03F06000
03F1C000
03E38000
03EF8000
07FF8000
07EFC000
07CFE000
0FC7E000
0FC3F000
0FC3F000
0F81F800
1F81FC00
1F80FC00
3FC0FE00
7FE07F80
FFE07F00
ENDCHAR

STARTCHAR L
ENCODING 76
SWIDTH 667 0
DWIDTH 22 0
BBX 22 23 0 0
BITMAP
03FF80
07FF00
01FC00
01F800
01F800
01F800
01F000
03F000
03F000
03E000
03E000
07E000
07E000
07C000
07C000
0FC000
0FC000
0F8000
1F801C
1F8038
3F80F8
7FC3F0
FFFFF0
ENDCHAR

STARTCHAR M
ENCODING 77
SWIDTH 979 0
DWIDTH 32 0
BBX 35 23 -1 0
BITMAP
00FF003FE0
00FF003FC0
007F007F80
007F007F00
007F00FE00
005F00FE00
00DF01BE00
009F033E00
009F837E00
019F867E00
011F8C7C00
031F8C7C00
030F987C00
060FB07C00
060FB07C00
040FE07C00
0C0FC0FC00
0C0FC0FC00
180F80FC00
1C0700FC00
3C0701FC00
FE0607FE00
FE0607FE00
ENDCHAR

STARTCHAR N
ENCODING 78
SWIDTH 812 0
DWIDTH 27 0
BBX 29 23 0 0
BITMAP
0FF003F8
07F001F0
03F800E0
01FC00C0
01FC00C0
017E00C0
037E0080
033F0180
033F0180
021F8100
061F8100
060FC300
060FC300
0407E200
0C07F200
0C03F600
0C03FE00
0801FC00
1801FC00
1800FC00
3C007E00
FF007E00
FF003F00
ENDCHAR

STARTCHAR O
ENCODING 79
SWIDTH 854 0
DWIDTH 28 0
BBX 25 24 3 -1
BITMAP
001FC000
00FFF000
01F07C00
07E03E00
0FC01E00
1F801F00
1F001F00
3F001F80
7F001F80
7E001F80
7E001F80
FE001F80
FC003F80
FC003F00
FC003F00
FC003F00
FC007E00
7C007C00
7C00FC00
3E01F800
3E03F000
1F07C000
07FF0000
01F80000
ENDCHAR

STARTCHAR P
ENCODING 80
SWIDTH 677 0
DWIDTH 22 0
BBX 25 23 0 0
BITMAP
03FFF800
07FFFE00
01FC3F00
01F81F00
01F81F80
01F81F80
01F81F80
01F01F80
03F03F00
03F03F00
03E0FE00
03EFF800
07EFE000
07E00000
07C00000
0FC00000
0FC00000
0FC00000
0F800000
1FC00000
3FC00000
FFF00000
FFF00000
ENDCHAR

STARTCHAR Q
ENCODING 81
SWIDTH 854 0
DWIDTH 28 0
BBX 25 29 3 -6
BITMAP
001FC000
00FFF000
01F07C00
07E03E00
0FC01F00
1F801F00
1F001F00
3F001F80
7F001F80
7E001F80
7E001F80
FE001F80
FC003F00
FC003F00
FC003F00
FC007E00
FC007E00
7C007C00
7C00F800
3E01F000
1F03E000
0F8FC000
07FF0000
03F00000
01FE0000
00FFF000
003FFF00
000FFE00
0003F800
ENDCHAR

STARTCHAR R
ENCODING 82
SWIDTH 781 0
DWIDTH 26 0
BBX 26 23 0 0
BITMAP
07FFFE00
03F87F00
01F81F80
01F80FC0
01F00FC0
01F00FC0
03F00FC0
03F00FC0
03E01F80
03E03F80
07E0FE00
07FFF800
07C3E000
0FC3E000
0FC3F000
0F81F000
0F81F000
1F81F800
1F80F800
1F00FC00
3F80FC00
FFE07F00
FFC07E00
ENDCHAR

STARTCHAR S
ENCODING 83
SWIDTH 625 0
DWIDTH 21 0
BBX 22 23 0 0
BITMAP
001FC0
00FFF8
01F07C
01E03C
03E038
03E018
03F000
03F800
01FC00
01FE00
00FF00
007F80
003FC0
001FC0
000FE0
7007E0
7003E0
7003E0
7803E0
F807C0
7E0F80
1FFF00
01F800
ENDCHAR

STARTCHAR T
ENCODING 84
SWIDTH 729 0
DWIDTH 24 0
BBX 25 23 3 0
BITMAP
3FFFFF80
7E3F1F00
783E0F00
703E0700
E07E0700
007E0000
007C0000
00FC0000
00FC0000
00FC0000
00F80000
01F80000
01F80000
01F00000
01F00000
03F00000
03F00000
03E00000
07E00000
07E00000
0FF00000
3FFC0000
3FF80000
ENDCHAR

STARTCHAR U
ENCODING 85
SWIDTH 792 0
DWIDTH 26 0
BBX 25 23 4 0
BITMAP
7FF07F80
7FF07F80
3FC01E00
1F801C00
1F001C00
3F001800
3F001800
3E001800
3E001000
7E003000
7E003000
7C003000
7C002000
FC006000
FC006000
F8006000
F8004000
F800C000
FC018000
7C038000
3F0F0000
1FFE0000
07F80000
ENDCHAR

STARTCHAR V
ENCODING 86
SWIDTH 719 0
DWIDTH 24 0
BBX 23 23 5 0
BITMAP
FFC1FE
FFC1FC
7F00F8
3F0070
3E0060
3E00C0
3E00C0
3E0180
3E0300
3E0200
3E0600
3E0C00
3E1800
3E1000
3E3000
3E6000
3EC000
7F8000
7F0000
7F0000
7E0000
7C0000
780000
ENDCHAR

STARTCHAR W
ENCODING 87
SWIDTH 969 0
DWIDTH 32 0
BBX 32 23 4 0
BITMAP
FF8FF87F
FF0FF8FF
7E07E03C
7E07E038
7E07E030
7E03E030
3E03E060
3E07E060
3E07E0C0
3E0FE080
3E0BE180
3E1BE300
3E33E300
3E33E600
3E63E400
3EC3EC00
3EC3F800
3F83F800
3F03F000
3F03F000
3E03E000
3C03E000
3C03C000
ENDCHAR

STARTCHAR X
ENCODING 88
SWIDTH 771 0
DWIDTH 25 0
BBX 28 23 0 0
BITMAP
07FF0FF0
07FF0FE0
01FC07C0
00FC0780
00FC0600
007E0C00
007E1800
003F3000
003F6000
001FC000
001F8000
000FC000
000FC000
001BE000
0037E000
00E3F000
0183F000
0301F800
0601F800
1E00FC00
3E01FE00
FF03FF00
FF03FF00
ENDCHAR

STARTCHAR Y
ENCODING 89
SWIDTH 677 0
DWIDTH 22 0
BBX 22 23 3 0
BITMAP
FFC1FC
FFC1FC
3F0078
3F0070
1F00E0
1F80C0
1F81C0
0F8380
0F8300
0FC600
0FCC00
07CC00
07D800
07F000
03E000
07E000
07E000
07C000
0FC000
0FC000
1FE000
7FF800
7FF000
ENDCHAR

STARTCHAR Z
ENCODING 90
SWIDTH 687 0
DWIDTH 23 0
BBX 23 23 1 0
BITMAP
03FFFE
07FFFE
0781FE
0601FC
0E03F8
0007F0
000FE0
001FE0
003FC0
003F80
007F00
00FE00
01FC00
03FC00
07F800
07F000
0FE000
1FC018
3F8030
7F8070
FF01F0
FE0FE0
FFFFE0
ENDCHAR

STARTCHAR bracketleft
ENCODING 91
SWIDTH 385 0
DWIDTH 13 0
BBX 17 29 0 -6
BITMAP
007F80
00FF00
00F800
00F000
01F000
01F000
01E000
03E000
03E000
03C000
07C000
07C000
078000
078000
0F8000
0F8000
0F0000
1F0000
1F0000
1E0000
3E0000
3E0000
3C0000
7C0000
7C0000
7C0000
7C0000
FF0000
FF0000
ENDCHAR

STARTCHAR backslash
ENCODING 92
SWIDTH 281 0
DWIDTH 9 0
BBX 4 22 3 0
BITMAP
C0
C0
C0
C0
C0
C0
C0
C0
C0
40
60
60
60
60
60
60
60
60
60
60
30
30
ENDCHAR

STARTCHAR bracketright
ENCODING 93
SWIDTH 385 0
DWIDTH 13 0
BBX 17 29 -3 -6
BITMAP
007F80
007F00
001F00
001F00
001E00
003E00
003E00
003C00
007C00
007C00
007800
00F800
00F800
00F000
00F000
01F000
01F000
01E000
03E000
03E000
03C000
07C000
07C000
078000
0F8000
0F8000
1F0000
FF0000
FF0000
ENDCHAR

STARTCHAR asciicircum
ENCODING 94
SWIDTH 573 0
DWIDTH 19 0
BBX 15 11 2 11
BITMAP
0380
0380
07C0
06C0
0EE0
0C70
1870
3838
3018
701C
E00E
ENDCHAR

STARTCHAR underscore
ENCODING 95
SWIDTH 500 0
DWIDTH 17 0
BBX 17 2 0 -6
BITMAP
FFFF80
FFFF80
ENDCHAR

STARTCHAR quoteleft
ENCODING 96
SWIDTH 365 0
DWIDTH 12 0
BBX 7 10 6 13
BITMAP
0E
3C
70
E0
E0
F0
F8
F8
F8
30
ENDCHAR

STARTCHAR a
ENCODING 97
SWIDTH 594 0
DWIDTH 20 0
BBX 18 15 1 0
BITMAP
03F980
079D80
0F0F80
1E0F00
3C0F00
7C1F00
781E00
781E00
F83E00
F83E00
F87CC0
FDFD80
7FBF00
7F3F00
3C1C00
ENDCHAR

STARTCHAR b
ENCODING 98
SWIDTH 615 0
DWIDTH 20 0
BBX 17 23 2 0
BITMAP
0FC000
3F8000
0F8000
0F8000
0F0000
1F0000
1F0000
1E3800
3EFE00
3EFF00
3F1F80
7E0F80
7C0F80
780F80
780F80
F80F80
F81F00
F01F00
F03E00
F03C00
78F800
3FF000
0F8000
ENDCHAR

STARTCHAR c
ENCODING 99
SWIDTH 500 0
DWIDTH 17 0
BBX 15 15 1 0
BITMAP
01F8
07FE
0F1E
3E1E
3C0E
7800
7800
F800
F800
F800
FC00
7C1E
7FF8
3FE0
0F80
ENDCHAR

STARTCHAR d
ENCODING 100
SWIDTH 625 0
DWIDTH 21 0
BBX 21 23 2 0
BITMAP
000038
0007F0
000FF0
0001F0
0001E0
0003E0
0003E0
0003C0
00F7C0
07FFC0
0F0F80
1E0F80
3C0F80
780F00
780F00
F81F00
F01E00
F03E00
F07E00
F8FCE0
FFDF80
7F3F00
3C1C00
ENDCHAR

STARTCHAR e
ENCODING 101
SWIDTH 510 0
DWIDTH 17 0
BBX 15 16 1 0
BITMAP
00F8
03FE
0F1E
1E0E
3C0E
3C1E
783C
F8F8
FFF0
FF00
F800
F80E
FC1C
7FF0
3FE0
0F00
ENDCHAR

STARTCHAR f
ENCODING 102
SWIDTH 333 0
DWIDTH 11 0
BBX 23 29 -6 -6
BITMAP
000078
0001FC
00039E
00079C
000780
000F80
000F00
001F00
007FC0
007FC0
003E00
003E00
003E00
003C00
007C00
007C00
007800
007800
00F800
00F800
00F000
01F000
01E000
01E000
01C000
73C000
F38000
7F0000
3C0000
ENDCHAR

STARTCHAR g
ENCODING 103
SWIDTH 594 0
DWIDTH 20 0
BBX 21 21 -2 -6
BITMAP
00FF78
01E3F8
03C1D8
07C1E0
0781E0
0781E0
0783E0
07C3E0
03EFC0
01FF00
070000
0E0000
1F0000
1FFE00
1FFF80
0FFF80
3FFF80
700780
F00700
780E00
3FF800
ENDCHAR

STARTCHAR h
ENCODING 104
SWIDTH 625 0
DWIDTH 21 0
BBX 19 23 1 0
BITMAP
006000
0FE000
1FE000
03C000
07C000
07C000
078000
0F8000
0F8780
0F1FC0
0F37C0
1F63C0
1EC7C0
1F87C0
3F0F80
3F0F80
3E0F00
7E1F00
7C1E60
7C1E40
F83EC0
F83F80
F01E00
ENDCHAR

STARTCHAR i
ENCODING 105
SWIDTH 333 0
DWIDTH 11 0
BBX 12 23 0 0
BITMAP
00E0
01F0
01F0
01F0
00E0
0000
0000
0000
0700
1F80
3F80
6780
C780
0F80
0F00
1F00
1E00
3E00
3E00
3CC0
7D80
7F00
7E00
ENDCHAR

STARTCHAR j
ENCODING 106
SWIDTH 323 0
DWIDTH 11 0
BBX 17 29 -5 -6
BITMAP
000700
000F80
000F80
000F80
000700
000000
000000
000000
003800
00FC00
01FC00
033C00
027C00
007C00
007800
007800
00F800
00F800
00F000
01F000
01F000
01E000
03E000
03E000
03C000
E38000
E78000
FF0000
7C0000
ENDCHAR

STARTCHAR k
ENCODING 107
SWIDTH 625 0
DWIDTH 21 0
BBX 19 23 1 0
BITMAP
00E000
0FE000
1FE000
03C000
07C000
07C000
078000
0F8000
0F8780
0F3FC0
1F7FE0
1FC3E0
1F03E0
3E03C0
3E0780
3C3E00
3FFC00
7C7C00
7C3E00
783E60
F81FC0
F81F80
F00700
ENDCHAR

STARTCHAR l
ENCODING 108
SWIDTH 302 0
DWIDTH 10 0
BBX 10 23 1 0
BITMAP
00C0
1FC0
1FC0
0780
0780
0F80
0F00
0F00
1F00
1E00
1E00
3E00
3C00
3C00
7C00
7C00
7800
F800
F900
F300
FE00
FC00
7000
ENDCHAR

STARTCHAR m
ENCODING 109
SWIDTH 1000 0
DWIDTH 33 0
BBX 33 15 0 0
BITMAP
0F83E03C00
1F8FF0FE00
379CF19E00
E7B0F31E00
0FA0F63E00
0F61FC3C00
0FC1F83C00
1F81F87C00
1F03F07800
1F03E07800
3E03E0F980
3E07C0F300
3C07C0FE00
3C0780FC00
7C0F80F800
ENDCHAR

STARTCHAR n
ENCODING 110
SWIDTH 635 0
DWIDTH 21 0
BBX 19 15 1 0
BITMAP
0E0F80
3F1FC0
7F33C0
4F63C0
9FC7C0
1F8780
1F8780
3F0F80
3E0F00
3E0F00
3C1F00
7C1E60
781F40
781F80
F81F00
ENDCHAR

STARTCHAR o
ENCODING 111
SWIDTH 573 0
DWIDTH 19 0
BBX 16 15 2 0
BITMAP
01F0
0FFC
1E1E
3C0F
7C0F
F80F
F80F
F81F
F01F
F01F
F01E
F03E
787C
3CF8
1FE0
ENDCHAR

STARTCHAR p
ENCODING 112
SWIDTH 615 0
DWIDTH 20 0
BBX 22 24 -2 -6
BITMAP
003C00
007800
00F800
00FFE0
00FFF0
03F1F8
07F0F8
0DF07C
19E07C
01E07C
03E07C
03E078
03C0F8
07C0F0
07C1F0
07C3E0
078F80
0FFE00
0F8000
0F0000
0F0000
1F0000
7F8000
FFE000
ENDCHAR

STARTCHAR q
ENCODING 113
SWIDTH 594 0
DWIDTH 20 0
BBX 19 20 1 -5
BITMAP
01FCE0
07CFC0
0F07C0
1E07C0
3C0780
7C0F80
7C0F80
F80F00
F81F00
F81F00
F83E00
FC7E00
7FDE00
3FBC00
1E3C00
007C00
007800
00F800
01FC00
07FF00
ENDCHAR

STARTCHAR r
ENCODING 114
SWIDTH 479 0
DWIDTH 16 0
BBX 16 15 1 0
BITMAP
0E0F
3F1F
7F3F
4F77
CF67
0FC0
0FC0
1F80
1F80
1F00
1F00
3E00
3E00
3E00
3C00
ENDCHAR

STARTCHAR s
ENCODING 115
SWIDTH 490 0
DWIDTH 16 0
BBX 15 15 0 0
BITMAP
03F0
07FC
0E1E
1E1E
1F1E
1F80
0FC0
07F0
03F8
41F8
F0F8
F078
F878
7CF0
3FE0
ENDCHAR

STARTCHAR t
ENCODING 116
SWIDTH 365 0
DWIDTH 12 0
BBX 11 20 2 0
BITMAP
0180
0180
0380
0700
1F00
7FE0
FFC0
1E00
3E00
3E00
3C00
3C00
7C00
7C00
7800
F8C0
F980
FF00
7E00
3800
ENDCHAR

STARTCHAR u
ENCODING 117
SWIDTH 635 0
DWIDTH 21 0
BBX 20 15 1 0
BITMAP
1E03E0
3F03C0
6F03C0
CF07C0
9F07C0
1E0F80
1E0F80
3E1F80
3C1700
7C2F00
7C6F30
78DE60
799FC0
7F1F80
3C1F00
ENDCHAR

STARTCHAR v
ENCODING 118
SWIDTH 573 0
DWIDTH 19 0
BBX 17 15 1 0
BITMAP
1FC700
3F8F80
7F8F80
FB0780
C70780
C60380
0E0300
1E0300
3C0700
3C0600
3E0C00
3E1C00
1FF800
1FE000
078000
ENDCHAR

STARTCHAR w
ENCODING 119
SWIDTH 854 0
DWIDTH 28 0
BBX 26 15 1 0
BITMAP
1FC3C780
3F83C780
7F87C7C0
FF07C3C0
C30783C0
C60781C0
0E070180
1E070180
3C078180
3C0F8380
3C1FC700
3E3BFE00
3FF3FE00
1FE1FC00
0F80F000
ENDCHAR

STARTCHAR x
ENCODING 120
SWIDTH 615 0
DWIDTH 20 0
BBX 20 15 0 0
BITMAP
0701E0
1FC3F0
1FC7F0
33EE70
63EC00
01F800
01F000
00F800
00F800
00FC00
41BC20
F33E60
FE1FC0
FC1F80
780E00
ENDCHAR

STARTCHAR y
ENCODING 121
SWIDTH 552 0
DWIDTH 18 0
BBX 21 21 -3 -6
BITMAP
01C070
03E0F8
07E0F8
0DF0F8
0DF0F8
00F070
00F870
00F860
00F8E0
0078C0
007D80
007D80
007F00
003E00
003C00
003800
007000
70E000
FF8000
FF0000
7C0000
ENDCHAR

STARTCHAR z
ENCODING 122
SWIDTH 500 0
DWIDTH 17 0
BBX 16 15 0 0
BITMAP
0FE3
1FFE
3FFE
31DC
3038
3070
01C0
0380
0E08
180C
3E0C
7FFC
FFF8
DFF0
81C0
ENDCHAR

STARTCHAR braceleft
ENCODING 123
SWIDTH 396 0
DWIDTH 13 0
BBX 14 29 6 -7
BITMAP
007C
00E0
01C0
0380
0380
0780
0780
0780
0780
0700
0700
0E00
1C00
7000
6000
3800
1C00
1C00
3C00
3C00
7C00
7800
F800
F000
F000
E000
E000
7000
0C00
ENDCHAR

STARTCHAR bar
ENCODING 124
SWIDTH 219 0
DWIDTH 7 0
BBX 2 29 3 -7
BITMAP
C0
C0
C0
C0
C0
C0
C0
C0
C0
C0
C0
C0
C0
C0
C0
C0
C0
C0
C0
C0
C0
C0
C0
C0
C0
C0
C0
C0
C0
ENDCHAR

STARTCHAR braceright
ENCODING 125
SWIDTH 396 0
DWIDTH 13 0
BBX 14 29 1 -7
BITMAP
0070
0018
001C
001C
003C
003C
0078
0078
00F0
00F0
00E0
00E0
0060
0038
0018
0060
01C0
0380
0380
0780
0780
0780
0780
0700
0700
0E00
0C00
3800
C000
ENDCHAR

STARTCHAR asciitilde
ENCODING 126
SWIDTH 573 0
DWIDTH 19 0
BBX 15 6 2 8
BITMAP
0002
3E02
7FC6
FFFE
C7FC
80F8
ENDCHAR

STARTCHAR space
ENCODING 160
SWIDTH 250 0
DWIDTH 9 0
BBX 0 0 0 0
BITMAP
ENDCHAR

STARTCHAR afii10023
ENCODING 161
SWIDTH 740 0
DWIDTH 24 0
BBX 26 30 0 0
BITMAP
001C0700
003E0F80
003E0F80
003E0F80
001C0700
00000000
00000000
07FFFFC0
03FC07C0
01FC03C0
01F80180
01F80180
01F80000
01F00000
01F00C00
03F01C00
03F07800
03FFF800
03E07800
07E03800
07E03000
07C03000
07C00000
0FC00000
0FC00700
0F800E00
1F801E00
3FC03C00
7FE1FC00
FFFFFC00
ENDCHAR

STARTCHAR afii10051
ENCODING 162
SWIDTH 865 0
DWIDTH 29 0
BBX 26 23 2 0
BITMAP
3FFFFF80
7E3F1F00
783E0700
607E0700
E07E0700
007C0000
007C0000
00FCF800
00FDFE00
00FE1F80
00F80F80
01F80FC0
01F807C0
01F007C0
03F007C0
03F00FC0
03E00FC0
03E30FC0
07E79F80
07E79F80
0FE73F00
3FF3FC00
3FF1F000
ENDCHAR

STARTCHAR afii10052
ENCODING 163
SWIDTH 656 0
DWIDTH 22 0
BBX 24 30 0 0
BITMAP
0003FE
0007F0
0007C0
000F00
000C00
000000
000000
07FFFF
03FE3F
01F80F
01F80E
01F806
03F006
03F000
03F000
03E000
07E000
07E000
07E000
07C000
0FC000
0FC000
0F8000
0F8000
1F8000
1F8000
3F8000
3F8000
FFC000
FFC000
ENDCHAR

STARTCHAR afii10053
ENCODING 164
SWIDTH 771 0
DWIDTH 25 0
BBX 25 24 3 -1
BITMAP
001FFC00
00FC3F00
01F00F80
07E00780
0FC00780
1F800380
3F000380
3F000000
7F000000
7E000000
7E000000
FFFFC000
FC000000
FC000000
FC000000
FC000000
FC000000
FC003C00
7E007C00
7E00FC00
3F00FC00
1F83F800
0FFFE000
00FF0000
ENDCHAR

STARTCHAR afii10054
ENCODING 165
SWIDTH 625 0
DWIDTH 21 0
BBX 22 23 0 0
BITMAP
001FC0
00FFF0
01F07C
01E03C
03E038
03E018
03F000
03F800
01FC00
01FE00
00FF00
007F80
003FC0
001FC0
000FE0
7007E0
7003E0
7003E0
7803E0
F807C0
7E0F80
1FFF00
01F800
ENDCHAR

STARTCHAR afii10055
ENCODING 166
SWIDTH 417 0
DWIDTH 14 0
BBX 16 23 0 0
BITMAP
03FF
03FF
01FC
01F8
01F8
01F8
01F0
03F0
03F0
03E0
03E0
07E0
07E0
07C0
07C0
0FC0
0FC0
0F80
1F80
1F80
3FC0
FFE0
FFE0
ENDCHAR

STARTCHAR afii10056
ENCODING 167
SWIDTH 417 0
DWIDTH 14 0
BBX 19 30 0 0
BITMAP
0701C0
0F83E0
0F83E0
0F83E0
0701C0
000000
000000
07FF00
07FE00
03FC00
01F800
01F800
01F000
03F000
03F000
03E000
07E000
07E000
07C000
07C000
0FC000
0FC000
0F8000
1F8000
1F8000
1F8000
3F8000
3F8000
FFE000
FFC000
ENDCHAR

STARTCHAR afii10057
ENCODING 168
SWIDTH 396 0
DWIDTH 13 0
BBX 24 29 -7 -6
BITMAP
000FFF
000FFE
0003FC
0003F8
0003F0
0003F0
0003E0
0007E0
0007E0
0007C0
0007C0
000FC0
000FC0
000F80
001F80
001F80
001F00
001F00
003F00
003F00
003E00
003E00
007E00
707C00
F87C00
F8F800
F8F000
7FE000
3F0000
ENDCHAR

STARTCHAR afii10058
ENCODING 169
SWIDTH 1099 0
DWIDTH 36 0
BBX 36 23 0 0
BITMAP
003FFFFC00
001F1FF000
000E07E000
000C07E000
000C07C000
00080FC000
00180FC000
00180F8000
00100F8000
00101F8000
00301F8000
00301FFF00
00203F0FC0
00203F07E0
00603F03E0
00603E03F0
00407E03F0
00C07E03F0
78C07E03F0
F8807C07E0
F980FE0FC0
7F01FF3F80
3E07FFFE00
ENDCHAR

STARTCHAR afii10059
ENCODING 170
SWIDTH 1125 0
DWIDTH 37 0
BBX 37 23 0 0
BITMAP
03FF0FFC00
03FF0FFC00
01FC07F000
01F803F000
01F803E000
01F807E000
01F007E000
03F007C000
03F007C000
03E00FC000
03FFFFFF00
07FFFFFFC0
07E01F83E0
07E01F81F0
07C01F01F8
0FC01F01F8
0FC03F01F8
0FC03F01F8
1F803E01F0
1F807E03F0
3F807F07E0
7FE1FF9FC0
FFC3FFFF00
ENDCHAR

STARTCHAR afii10060
ENCODING 171
SWIDTH 906 0
DWIDTH 30 0
BBX 26 23 2 0
BITMAP
7FFFFF00
7C7E1F00
707E0E00
E07E0E00
C07C0600
00FC0000
00FC0000
00F87C00
00F9FF00
01FB0F80
01FE07C0
01F807C0
03F007C0
03F007C0
03E00FC0
03E00FC0
07E00F80
07E01F80
07C01F80
0FC01F80
0FE03F80
3FF0FFC0
3FF0FFC0
ENDCHAR

STARTCHAR afii10061
ENCODING 172
SWIDTH 723 0
DWIDTH 24 0
BBX 27 29 0 0
BITMAP
0000FF80
0001F800
0001E000
00038000
00000000
00000000
03FF03C0
07FE07E0
01FC0FE0
01F81FE0
01F818C0
01F03000
03F03000
03F06000
03F06000
03E0C000
07FF8000
07FFC000
07C7E000
07C7E000
0FC3F000
0FC3F000
0F81F800
1F81F800
1F81F800
1F80FC00
3F80FC00
FFC07F00
FFC07E00
ENDCHAR

STARTCHAR hyphen
ENCODING 173
SWIDTH 458 0
DWIDTH 15 0
BBX 13 4 1 5
BITMAP
7FF8
7FF0
7FF0
FFF0
ENDCHAR

STARTCHAR afii10062
ENCODING 174
SWIDTH 719 0
DWIDTH 24 0
BBX 24 30 3 0
BITMAP
03C078
03E07C
03E0F8
03F1F8
00FFE0
000000
000000
3FE07F
3FE07E
1F803C
1F8038
0F8030
0F8030
0FC060
07C0E0
07C0C0
07C180
03E180
03E300
03E300
03F600
01F600
01FC00
01F800
70F800
F8F000
F86000
FCE000
7FC000
1F0000
ENDCHAR

STARTCHAR afii10145
ENCODING 175
SWIDTH 844 0
DWIDTH 28 0
BBX 30 29 0 -6
BITMAP
03FF0FFC
03FF0FF8
01FC07F0
01F807E0
01F807E0
01F007E0
01F007C0
03F00FC0
03F00FC0
03E00FC0
03E00F80
07E01F80
07E01F80
07C01F00
07C01F00
0FC03F00
0FC03F00
0F803E00
1F803E00
1F807E00
1F807E00
7FC1FF80
FFFFFF00
003C0000
007C0000
007C0000
00780000
00780000
00F80000
ENDCHAR

STARTCHAR afii10017
ENCODING 176
SWIDTH 708 0
DWIDTH 23 0
BBX 24 23 -2 0
BITMAP
00001F
00003F
00007E
0000FE
0001BE
00033E
00073E
00067E
000C7E
00187E
00307E
00607E
00C07C
00FFFC
01FFFC
03007C
07007C
0E00FC
0E00FC
1E00FC
3E01FC
7F07FF
FF07FE
ENDCHAR

STARTCHAR afii10018
ENCODING 177
SWIDTH 729 0
DWIDTH 24 0
BBX 24 23 1 0
BITMAP
07FFFF
03FE3F
01F80E
01F80E
01F00E
03F006
03F004
03E000
03E000
07E000
07FF00
07FFE0
0FC3F0
0FC0F8
0FC0FC
0F80FC
1F80FC
1F80FC
1F80F8
3F01F8
3F83F0
7FCFE0
FFFF80
ENDCHAR

STARTCHAR afii10019
ENCODING 178
SWIDTH 750 0
DWIDTH 25 0
BBX 25 23 0 0
BITMAP
03FFFC00
01FC7F00
00FC1F80
00F80F80
01F80F80
01F80F80
01F01F80
01F01F80
03F03F00
03F0FC00
03FFE000
03E1F800
07E07C00
07E03E00
07C03F00
0FC03F00
0FC03F00
0FC03F00
0F803E00
1F807E00
3FC0FC00
7FE3F800
FFFFE000
ENDCHAR

STARTCHAR afii10020
ENCODING 179
SWIDTH 633 0
DWIDTH 21 0
BBX 24 23 0 0
BITMAP
07FFFF
03FC3F
01F80F
01F80E
01F006
03F006
03F000
03F000
03E000
07E000
07E000
07E000
07C000
0FC000
0FC000
0F8000
0F8000
1F8000
1F8000
3F8000
3F8000
FFC000
FFC000
ENDCHAR

STARTCHAR afii10021
ENCODING 180
SWIDTH 719 0
DWIDTH 24 0
BBX 29 29 -3 -6
BITMAP
00FFFFF8
007C1FF0
00380FE0
00300FC0
00300FC0
00300FC0
00200F80
00201F80
00601F80
00601F80
00401F00
00403F00
00C03F00
00803F00
00803E00
01807E00
01007E00
03007E00
03007C00
0600FC00
0E00FC00
1F03FE00
7FFFFF00
7E003F00
78000E00
70000E00
E0000600
C0000600
C0000400
ENDCHAR

STARTCHAR afii10022
ENCODING 181
SWIDTH 740 0
DWIDTH 24 0
BBX 26 23 0 0
BITMAP
07FFFFC0
03FC0780
01F80380
01F80380
01F80180
01F00000
01F00000
03F01C00
03F01800
03E07800
03FFF800
07E0F000
07E07000
07C03000
0FC03000
0FC00000
0FC00000
0F800600
1F800E00
1F801C00
3F807C00
7FE1FC00
FFFFF800
ENDCHAR

STARTCHAR afii10024
ENCODING 182
SWIDTH 915 0
DWIDTH 30 0
BBX 36 23 -3 0
BITMAP
01E0FFE0E0
03F0FFE1F0
03F83F83F0
03F83F07F0
01D83F0660
00083E0C00
00083E0800
00087E1800
00087E1000
00047C3000
001FFDE000
007FFFF000
01FCFDF800
01F8F8F800
03F1F8FC00
03F1F8FC00
07E1F0FC00
0FE1F07C00
0FC3F07E00
1FC3F07E00
3F87F03E00
FF0FFC3F80
FF1FFC3F00
ENDCHAR

STARTCHAR afii10025
ENCODING 183
SWIDTH 656 0
DWIDTH 22 0
BBX 21 23 0 0
BITMAP
003F00
01FFE0
03C1F0
0381F8
0700F8
0600F8
0000F8
0001F8
0001F0
0007E0
00FC00
000F00
0007C0
0003E0
0003F0
0003F0
7003F0
F803F0
F807E0
7807E0
3C0FC0
1FFF00
03F800
ENDCHAR

STARTCHAR afii10026
ENCODING 184
SWIDTH 844 0
DWIDTH 28 0
BBX 29 23 1 0
BITMAP
07FE1FF8
07FE1FF8
03F80FE0
03F00FC0
03F00FC0
03F01FC0
03E02F80
07E07F80
07E0DF80
07C19F80
07C31F00
0FC63F00
0FCC3F00
0F983E00
0FB03E00
1FE07E00
1FC07E00
1F807C00
3F00FC00
3F00FC00
7F01FC00
FF83FF00
FF87FE00
ENDCHAR

STARTCHAR afii10027
ENCODING 185
SWIDTH 844 0
DWIDTH 28 0
BBX 29 30 1 0
BITMAP
001C03C0
003E07C0
003F07C0
001F0F80
000FFE00
00000000
00000000
07FE1FF8
07FE1FF8
03F80FE0
03F00FC0
03F00FC0
03F01FC0
03E02F80
07E07F80
07E0DF80
07C19F80
07C31F00
0FC63F00
0FCC3F00
0F983E00
0FB03E00
1FE07E00
1FC07E00
1F807C00
3F00FC00
3F00FC00
7F01FC00
FF83FF00
FF87FE00
ENDCHAR

STARTCHAR afii10028
ENCODING 186
SWIDTH 723 0
DWIDTH 24 0
BBX 27 23 0 0
BITMAP
03FF03C0
07FE07E0
01FC0FE0
01F81FE0
01F818C0
01F03000
03F03000
03F06000
03F06000
03E0C000
07FF8000
07FFC000
07C7E000
07C7E000
0FC3F000
0FC3F000
0F81F800
1F81F800
1F81F800
1F80FC00
3F80FC00
FFC07F00
FFC07E00
ENDCHAR

STARTCHAR afii10029
ENCODING 187
SWIDTH 835 0
DWIDTH 28 0
BBX 29 23 0 0
BITMAP
003FFFF8
001F1FF0
000C07E0
000C07C0
00080FC0
00080FC0
00180F80
00180F80
00101F80
00301F80
00301F00
00201F00
00203F00
00603F00
00603E00
00403E00
00407E00
30C07C00
78807C00
F980FC00
FF01FE00
7F03FF00
1C03FF00
ENDCHAR

STARTCHAR afii10030
ENCODING 188
SWIDTH 979 0
DWIDTH 32 0
BBX 35 23 -1 0
BITMAP
00FF003FE0
00FF003FC0
007F007F80
007F007F00
007F00FE00
005F00FE00
00DF01BE00
009F033E00
009F837E00
019F867E00
011F8C7C00
031F8C7C00
031F987C00
060FB07C00
060FB07C00
040FE07C00
0C0FC0FC00
0C0FC0FC00
180F80FC00
1C0700FC00
3C0701FC00
FE0607FE00
FE0607FE00
ENDCHAR

STARTCHAR afii10031
ENCODING 189
SWIDTH 844 0
DWIDTH 28 0
BBX 29 23 1 0
BITMAP
07FE1FF8
07FE1FF8
03F807E0
03F00FC0
03F00FC0
03F00FC0
03E00F80
07E00F80
07E01F80
07C01F80
07FFFF00
0FFFFF00
0FC03F00
0F803E00
0F803E00
1F807E00
1F007E00
1F007C00
3F007C00
3F00FC00
7F01FC00
FFC3FF00
FF87FE00
ENDCHAR

STARTCHAR afii10032
ENCODING 190
SWIDTH 854 0
DWIDTH 28 0
BBX 25 23 3 0
BITMAP
001FC000
00FFF000
01F07C00
07E03E00
0FC01F00
1F801F00
3F001F00
3F001F80
7E001F80
7E001F80
7E001F80
FC001F80
FC003F00
FC003F00
FC003F00
FC007E00
FC007E00
7C00FC00
7E00F800
3E01F000
1F07C000
07FF8000
01F80000
ENDCHAR

STARTCHAR afii10033
ENCODING 191
SWIDTH 854 0
DWIDTH 28 0
BBX 29 23 1 0
BITMAP
07FFFFF8
03FC0FF0
03F807E0
01F007E0
03F007C0
03F00FC0
03E00FC0
03E00F80
07E01F80
07E01F80
07C01F80
07C01F00
0FC03F00
0FC03F00
0F803E00
1F803E00
1F807E00
1F807E00
1F007C00
3F00FC00
7F81FE00
FFC3FF00
FF83FF00
ENDCHAR

STARTCHAR afii10034
ENCODING 192
SWIDTH 677 0
DWIDTH 22 0
BBX 25 23 0 0
BITMAP
03FFF800
07FFFE00
01FC3F00
01F81F00
01F81F80
01F81F80
01F81F80
01F01F80
03F03F00
03F03F00
03E0FE00
03EFF800
07E7E000
07E00000
07C00000
0FC00000
0FC00000
0FC00000
0F800000
1F800000
3FC00000
FFF00000
FFF00000
ENDCHAR

STARTCHAR afii10035
ENCODING 193
SWIDTH 750 0
DWIDTH 25 0
BBX 24 24 3 -1
BITMAP
000FE0
007FFC
01F81F
03E00F
07C00F
0F8007
1F0006
3F0006
3E0000
7E0000
7E0000
7C0000
FC0000
FC0000
FC0000
FC0000
FC0038
7C0038
7C0078
7E0070
3F00F0
1F83F0
07FF80
01FC00
ENDCHAR

STARTCHAR afii10036
ENCODING 194
SWIDTH 729 0
DWIDTH 24 0
BBX 25 23 3 0
BITMAP
3FFFFF80
7E3F1F00
783E0F00
703E0700
E07E0700
007E0000
007C0000
00FC0000
00FC0000
00FC0000
00F80000
01F80000
01F80000
01F00000
01F00000
03F00000
03F00000
03E00000
07E00000
07E00000
0FF00000
3FFC0000
3FF80000
ENDCHAR

STARTCHAR afii10037
ENCODING 195
SWIDTH 719 0
DWIDTH 24 0
BBX 24 23 3 0
BITMAP
3FE07F
3FE07E
1F803C
1F8038
0F8030
0F8030
0FC060
07C0E0
07C0C0
07C180
03E180
03E300
03E300
03F600
01F600
01FC00
01F800
70F800
F8F000
F86000
FCE000
7FC000
1F0000
ENDCHAR

STARTCHAR afii10038
ENCODING 196
SWIDTH 1021 0
DWIDTH 34 0
BBX 30 23 3 0
BITMAP
0007FE00
0007FE00
0003F800
0003F000
01FFFFC0
0FE3E7F0
1F83E0F8
3F07E0FC
7E07E07C
FC07C07C
FC0FC07C
F80FC07C
F80FC0FC
F80F80FC
F81F81F8
7C1F83F0
7E1F07E0
3FFF7FC0
0FFFFE00
003F0000
007F0000
01FFC000
01FFC000
ENDCHAR

STARTCHAR afii10039
ENCODING 197
SWIDTH 771 0
DWIDTH 25 0
BBX 28 23 0 0
BITMAP
07FF0FF0
07FF0FE0
01FC07C0
00FC0780
00FC0600
007E0C00
007E1800
003F3000
003F6000
001FC000
001F8000
000FC000
000FC000
001BE000
0037E000
00E3F000
0183F000
0301F800
0601F800
1E00FC00
3E01FE00
FF03FF00
FF03FF00
ENDCHAR

STARTCHAR afii10040
ENCODING 198
SWIDTH 844 0
DWIDTH 28 0
BBX 30 29 0 -6
BITMAP
03FF0FFC
07FE0FF8
03FC07F0
01F807E0
01F007E0
01F007C0
03F00FC0
03F00FC0
03E00FC0
03E00F80
07E01F80
07E01F80
07C01F00
0FC01F00
0FC03F00
0F803F00
0F803E00
1F807E00
1F807E00
1F007E00
3F80FE00
7FC1FF00
FFFFFF00
00001F00
00000F00
00000600
00000600
00000600
00000600
ENDCHAR

STARTCHAR afii10041
ENCODING 199
SWIDTH 802 0
DWIDTH 26 0
BBX 24 23 4 0
BITMAP
FFC3FF
FFC3FF
7F01FC
7E00FC
7E00F8
7E01F8
7C01F8
FC01F0
FC01F0
F803F0
F803F0
F807E0
F81FE0
7C3BE0
3FE7C0
0F87C0
000FC0
000FC0
000F80
001F80
003FC0
007FE0
007FE0
ENDCHAR

STARTCHAR afii10042
ENCODING 200
SWIDTH 1083 0
DWIDTH 36 0
BBX 38 23 0 0
BITMAP
03FE7FCFFC
07FE7FCFF8
03F87F07F0
01F83F07E0
01F83F07C0
01F03E0FC0
03F07E0FC0
03F07E0FC0
03E07C0F80
03E07C1F80
07E0FC1F80
07E0FC1F00
07C0F81F00
0FC1F83F00
0FC1F83F00
0F81F83E00
0F81F03E00
1F83F07E00
1F83F07E00
1F83F07C00
3F87F0FE00
7FCFF9FF00
FFFFFFFF00
ENDCHAR

STARTCHAR afii10043
ENCODING 201
SWIDTH 1083 0
DWIDTH 36 0
BBX 38 29 0 -6
BITMAP
03FE7FCFFC
07FE7FCFF8
03FC7F07E0
01F83F07E0
01F03E07C0
03F03E0FC0
03F07E0FC0
03F07E0FC0
03E07C0F80
07E0FC1F80
07E0FC1F80
07E0FC1F00
07C0F81F00
0FC1F83F00
0FC1F83F00
0F81F03E00
0F81F03E00
1F83F07E00
1F83F07E00
1F83F07C00
3F87F0FE00
7FCFF9FF00
FFFFFFFF00
0000001F00
0000000F00
0000000E00
0000000600
0000000600
0000000600
ENDCHAR

STARTCHAR afii10044
ENCODING 202
SWIDTH 823 0
DWIDTH 27 0
BBX 24 23 2 0
BITMAP
3FFFC0
7C3F00
707E00
607E00
E07E00
007C00
00FC00
00FC00
00F800
00F800
01FFF0
01F9FC
01F07E
03F03E
03F03F
03F03F
03E03F
07E03F
07E03E
07E07E
0FE0FC
1FF3F8
3FFFE0
ENDCHAR

STARTCHAR afii10045
ENCODING 203
SWIDTH 1050 0
DWIDTH 35 0
BBX 38 23 0 0
BITMAP
03FF001FFC
07FE001FF8
01FC000FE0
01F80007E0
01F80007C0
01F0000FC0
03F0000FC0
03F0000F80
03E0000F80
03E0001F80
07FF001F80
07FFE01F00
07C1F01F00
07C0F83F00
0FC0FC3F00
0FC0FC3E00
0F80FC7E00
0F80FC7E00
1F80FC7C00
1F81F87C00
3F83F0FE00
7FCFE1FF00
FFFF83FF00
ENDCHAR

STARTCHAR afii10046
ENCODING 204
SWIDTH 719 0
DWIDTH 24 0
BBX 22 23 1 0
BITMAP
07FE00
07FE00
03F800
01F800
01F000
03F000
03F000
03E000
03E000
07E000
07FF00
07FFE0
0FC1F0
0FC0F8
0F80FC
0F80FC
1F80FC
1F80FC
1F00F8
3F01F8
3F83F0
FFCFE0
FFFF80
ENDCHAR

STARTCHAR afii10047
ENCODING 205
SWIDTH 777 0
DWIDTH 26 0
BBX 24 23 1 0
BITMAP
01FFC0
07C1F0
0F00F8
0E007C
0C003E
0C003E
08003E
00003F
00003F
00003F
01FFFF
01FFFF
00007E
00007E
0000FE
2000FC
F001FC
F801F8
F803F0
F807E0
7C0FC0
1FFF00
07F800
ENDCHAR

STARTCHAR afii10048
ENCODING 206
SWIDTH 1250 0
DWIDTH 41 0
BBX 41 23 0 0
BITMAP
03FF001FC000
03FF00FFF000
01FC01F07C00
01F807E03E00
01F80FC01E00
01F81F801F00
01F01F001F00
03F03F001F80
03F07F001F80
03F07E001F80
03E07E001F80
07FFFC001F80
07E0FC003F00
07C0FC003F00
07C0FC003F00
0FC0FC007E00
0FC0FC007E00
0F807C00FC00
1F807E00F800
1F803E01F000
3F801F07C000
7FC007FF8000
FFC001FC0000
ENDCHAR

STARTCHAR afii10049
ENCODING 207
SWIDTH 792 0
DWIDTH 26 0
BBX 29 23 -1 0
BITMAP
001FFFF8
007E1FF0
00FC0FC0
01F80FC0
03F00FC0
03F00F80
03F01F80
03F01F80
01F01F00
00F81F00
007E3F00
001FFF00
007F3E00
00FE7E00
01FC7E00
01F87C00
03F87C00
07F0FC00
0FE0FC00
1FC0FC00
3FC1FC00
FF87FE00
FF07FE00
ENDCHAR

STARTCHAR afii10065
ENCODING 208
SWIDTH 585 0
DWIDTH 19 0
BBX 18 15 1 0
BITMAP
03F980
079D80
0E0F80
1E0F00
3C0F00
7C1F00
781E00
781E00
F83E00
F83E00
F87CC0
FDFD80
7FBF00
7F3E00
3C1C00
ENDCHAR

STARTCHAR afii10066
ENCODING 209
SWIDTH 573 0
DWIDTH 19 0
BBX 18 23 2 0
BITMAP
000040
007FC0
01FF80
07FF80
0FFF00
1FF800
1C0000
300000
61F000
67FC00
4E1E00
DC0F00
DC0F00
980F00
F80F00
F81F00
F01F00
F01E00
F03E00
783C00
787800
3FF000
078000
ENDCHAR

STARTCHAR afii10067
ENCODING 210
SWIDTH 514 0
DWIDTH 17 0
BBX 15 15 1 0
BITMAP
01F8
0FFE
1E1E
3C0E
7C1E
783C
FBE0
FFF8
F87C
F03C
F03C
707C
7878
1FF0
07C0
ENDCHAR

STARTCHAR afii10068
ENCODING 211
SWIDTH 378 0
DWIDTH 12 0
BBX 12 15 0 0
BITMAP
07E0
0FF0
18F0
00F0
00F0
01E0
03C0
0F00
3C00
7800
F800
F840
F8C0
7F80
3E00
ENDCHAR

STARTCHAR afii10069
ENCODING 212
SWIDTH 568 0
DWIDTH 19 0
BBX 17 23 2 0
BITMAP
00E000
003000
001800
001C00
000E00
000F00
000F00
000700
03C780
0FF780
1E1F80
3C0F80
7C0F80
F80F80
F80F80
F80F00
F00F00
F01F00
F01E00
F03E00
787C00
3CF800
0FE000
ENDCHAR

STARTCHAR afii10070
ENCODING 213
SWIDTH 517 0
DWIDTH 17 0
BBX 15 16 1 0
BITMAP
00F8
03FC
0F1E
1E0E
3C0E
3C1E
783C
F8F8
FFE0
FF00
F800
F80E
FC1C
7FF0
3FE0
0F00
ENDCHAR

STARTCHAR afii10072
ENCODING 214
SWIDTH 1083 0
DWIDTH 36 0
BBX 36 15 0 0
BITMAP
03C03C0FE0
0FF03C1CF0
3FF87C38F0
70F87878F0
007878F060
007878F000
0078F1F000
007FFFE000
00F8F1E000
00F1F1E000
60F1E1E060
F1E1E1F0E0
F1C3E1FFC0
F383C0FF00
7E03C03C00
ENDCHAR

STARTCHAR afii10073
ENCODING 215
SWIDTH 407 0
DWIDTH 13 0
BBX 12 16 1 0
BITMAP
07C0
1FF0
71F0
20F0
00F0
01E0
0FC0
0F00
0380
01C0
01E0
C1E0
E3E0
E3E0
FFC0
3E00
ENDCHAR

STARTCHAR afii10074
ENCODING 216
SWIDTH 635 0
DWIDTH 21 0
BBX 20 15 1 0
BITMAP
0E03E0
3F03C0
7F03C0
CF07C0
9F07C0
1F0F80
1E0F80
3E1F80
3C1F00
7C2F00
7C6F30
78DE60
799EC0
7F1F80
3E1F00
ENDCHAR

STARTCHAR afii10075
ENCODING 217
SWIDTH 635 0
DWIDTH 21 0
BBX 20 23 1 -1
BITMAP
002000
00F0C0
00F180
00FF00
003E00
000000
000000
000000
1F03E0
3F03C0
4F07C0
CF07C0
1F0F80
1E0F80
3E1F80
3E1F00
3C2700
7C3F00
785F30
78DE40
7F9FC0
7F1F80
3C0E00
ENDCHAR

STARTCHAR afii10076
ENCODING 218
SWIDTH 563 0
DWIDTH 19 0
BBX 17 15 1 0
BITMAP
038300
7F0780
7F0F80
1F0D00
1F1800
1E3000
1FE000
3FF000
3CF000
3CF800
7C7800
787800
787C00
F83E00
F03E00
ENDCHAR

STARTCHAR afii10077
ENCODING 219
SWIDTH 594 0
DWIDTH 20 0
BBX 19 15 -1 0
BITMAP
000FE0
003FC0
0067C0
00C780
008780
018F80
010F00
030F00
031F00
021E00
061E60
7E3EC0
FC3F80
783F00
701E00
ENDCHAR

STARTCHAR afii10078
ENCODING 220
SWIDTH 729 0
DWIDTH 24 0
BBX 23 15 -1 0
BITMAP
00F03E
01F07C
01F0FC
01F0FC
0171B8
037378
02F278
0276F0
067CF0
0678F0
0479F2
7C71E6
F871FC
F861F8
7041F0
ENDCHAR

STARTCHAR afii10079
ENCODING 221
SWIDTH 635 0
DWIDTH 21 0
BBX 19 15 1 0
BITMAP
0F83E0
7F83C0
1F03C0
0F07C0
1F0780
1E0780
1E0F80
3FFF80
3E0F00
3C0F00
7C1F20
7C1E60
781EC0
F81F80
F81F00
ENDCHAR

STARTCHAR afii10080
ENCODING 222
SWIDTH 573 0
DWIDTH 19 0
BBX 16 16 2 0
BITMAP
03F0
0FFC
1E1E
3C0F
7C0F
780F
F80F
F81F
F01F
F01F
F01E
F03E
783C
7878
1FF0
0780
ENDCHAR

STARTCHAR afii10081
ENCODING 223
SWIDTH 635 0
DWIDTH 21 0
BBX 19 15 1 0
BITMAP
0E0F80
3F1FC0
7F33C0
CF63C0
9FC3C0
1F87C0
1F8780
3F0F80
3E0F00
3E0F00
3C1F00
7C1E60
781F40
781F80
F81F00
ENDCHAR

STARTCHAR afii10082
ENCODING 224
SWIDTH 612 0
DWIDTH 20 0
BBX 22 24 -2 -6
BITMAP
003C00
007800
00F800
00FFC0
00FFF0
03F1F8
07F0F8
0DF07C
19E07C
01E07C
03E07C
03E078
03C0F8
07C0F0
07C1F0
07C3E0
078F80
0FFE00
0F8000
0F0000
0F0000
1F0000
7F8000
FFE000
ENDCHAR

STARTCHAR afii10083
ENCODING 225
SWIDTH 506 0
DWIDTH 17 0
BBX 15 15 1 0
BITMAP
00F8
07FE
0F1E
3E1E
3C0E
7800
7800
F800
F800
F800
F800
7C1E
7FF8
3FE0
0F80
ENDCHAR

STARTCHAR afii10084
ENCODING 226
SWIDTH 1000 0
DWIDTH 33 0
BBX 33 15 0 0
BITMAP
0F83E03C00
1F8FF0FE00
379DF19E00
E7B0F31E00
0FA0F63E00
0F61FC3C00
0FC1F83C00
1F81F87C00
1F03F07800
1F03E07800
3E03E0F980
3E07C0F300
3C07C0FE00
3C0780FC00
7C0F807800
ENDCHAR

STARTCHAR afii10085
ENCODING 227
SWIDTH 552 0
DWIDTH 18 0
BBX 21 21 -3 -6
BITMAP
01C070
03E0F8
07F0F8
0DF0F8
09F0F8
00F070
00F870
00F860
00F8E0
0078C0
007D80
007D00
007F00
003E00
003C00
003800
007000
78C000
FF8000
FF0000
7C0000
ENDCHAR

STARTCHAR afii10086
ENCODING 228
SWIDTH 781 0
DWIDTH 26 0
BBX 23 29 2 -6
BITMAP
00007C
0001FE
00039C
00078C
000700
000F00
000F00
001F00
07DE70
1FFEFC
3E3F1C
3C3E1E
7C3E1E
783C1E
F83C1E
F87C3E
F0783E
F0783C
F0F87C
F0F878
79F8F8
7F7FE0
1CF780
01E000
01E000
31C000
79C000
7F8000
3E0000
ENDCHAR

STARTCHAR afii10087
ENCODING 229
SWIDTH 615 0
DWIDTH 20 0
BBX 20 15 0 0
BITMAP
0701E0
1FC3F0
1FC7F0
73EE70
03EC00
01F800
01F000
00F800
00F800
00FC00
61BC20
F73E60
FE1FC0
7C1F80
300E00
ENDCHAR

STARTCHAR afii10088
ENCODING 230
SWIDTH 625 0
DWIDTH 21 0
BBX 20 21 1 -6
BITMAP
0E03E0
3F03C0
7F03C0
CF07C0
9F07C0
1F0F80
1E0F80
3E1F80
3C1F00
7C2F00
7C6F30
78DE60
799EC0
7F1F80
3E1F00
000400
000C00
001C00
001C00
003800
00F000
ENDCHAR

STARTCHAR afii10089
ENCODING 231
SWIDTH 615 0
DWIDTH 20 0
BBX 20 15 0 0
BITMAP
1F03E0
3F03E0
6F03C0
CF07C0
0F07C0
1E0780
1E0F80
1E3F80
1FEF00
078F00
001F30
001E60
001EC0
001F80
001F00
ENDCHAR

STARTCHAR afii10090
ENCODING 232
SWIDTH 1000 0
DWIDTH 33 0
BBX 33 15 0 0
BITMAP
0700F81F00
1F80F01E00
3F81F01E00
6781F03E00
CF83E03E00
0F83E07C00
0F07E07C00
1F03C0FC00
1E0DC17800
1E1BC1F800
3E3782F800
3C6786F380
3CC7DCFE00
3F87F0FC00
1E03E0F800
ENDCHAR

STARTCHAR afii10091
ENCODING 233
SWIDTH 1000 0
DWIDTH 33 0
BBX 33 21 0 -6
BITMAP
0700F81F00
1F80F01E00
3F81F01E00
6781F03E00
CF83E03E00
0F03E07C00
0F07E07C00
1F03C0FC00
1E0DC17800
1E1BC1F800
3E3782F800
3C6786F380
3CC7DCFE00
3F87F0FC00
1E03E0F800
0000003000
0000006000
000000E000
000000E000
000001C000
0000038000
ENDCHAR

STARTCHAR afii10092
ENCODING 234
SWIDTH 521 0
DWIDTH 17 0
BBX 14 15 1 0
BITMAP
3840
7FC0
FFC0
DD80
4300
0600
0CF8
3FFC
3E7C
7C3C
783C
783C
787C
3CF8
1FE0
ENDCHAR

STARTCHAR afii10093
ENCODING 235
SWIDTH 781 0
DWIDTH 26 0
BBX 24 15 1 0
BITMAP
010003
7F00FF
FF00FE
1E003E
1E003E
3E003C
3DF83C
3FFC7C
7E7C78
7C3C78
783CF8
783CF3
787CF6
3CF8FC
1FE0F8
ENDCHAR

STARTCHAR afii10094
ENCODING 236
SWIDTH 510 0
DWIDTH 17 0
BBX 14 15 1 0
BITMAP
0100
7F00
FF00
1E00
1E00
3E00
3DF8
3FFC
7E7C
7C3C
783C
783C
787C
3CF8
1FE0
ENDCHAR

STARTCHAR afii10095
ENCODING 237
SWIDTH 483 0
DWIDTH 16 0
BBX 15 15 0 0
BITMAP
01F0
07FC
1FFC
387E
603E
001E
001E
07FE
001E
003C
603C
F078
F0F0
7FC0
3F00
ENDCHAR

STARTCHAR afii10096
ENCODING 238
SWIDTH 867 0
DWIDTH 29 0
BBX 26 15 1 0
BITMAP
0380FC00
7F03FF00
7F078780
1F0F03C0
1E1F03C0
1E3E03C0
3E3E03C0
3FFE07C0
3C3C07C0
7C3C07C0
7C3C0F80
781E0F00
F81E1E00
F807FC00
F001E000
ENDCHAR

STARTCHAR afii10097
ENCODING 239
SWIDTH 603 0
DWIDTH 20 0
BBX 19 15 0 0
BITMAP
03FFE0
07C3C0
0F83C0
0F07C0
0F0780
0F0780
07CF80
01FF80
030F00
060F00
0C1F20
FC1E40
F81FC0
F01F80
600E00
ENDCHAR

STARTCHAR afii61352
ENCODING 240
SWIDTH 1135 0
DWIDTH 37 0
BBX 36 23 0 0
BITMAP
01FC007000
01FE00FC00
007E01BC00
003E013C00
003F033C00
003F031800
003F020000
006F860FC0
006F861CE0
004FC43870
004FC47070
00C7CCF070
00C7ECF070
0083E8E0F0
0183E8E0E0
0183F8E1C0
0101F07380
6101F03F00
F301F00000
F200F00000
FA00E3FFC0
FC0063FF80
380063FF80
ENDCHAR

STARTCHAR afii10071
ENCODING 241
SWIDTH 517 0
DWIDTH 17 0
BBX 17 22 1 0
BITMAP
078780
078780
078780
078780
000000
000000
000000
00F800
03FE00
0F1E00
1E0E00
3C0E00
781C00
783C00
FBF000
FFC000
F80000
F80E00
FC1C00
7FF000
3FE000
0F0000
ENDCHAR

STARTCHAR afii10099
ENCODING 242
SWIDTH 631 0
DWIDTH 21 0
BBX 19 30 0 -6
BITMAP
001000
07F000
0FE000
01E000
03E000
0FFFE0
0FFFC0
07C000
07C000
07BF00
07E3C0
0F81C0
0F01E0
0F01E0
1F01E0
1E01E0
1E01E0
3E03E0
3E03E0
3C03E0
7C07C0
7C07C0
780780
F80F80
000F00
001E00
003C00
007800
03E000
018000
ENDCHAR

STARTCHAR afii10100
ENCODING 243
SWIDTH 512 0
DWIDTH 17 0
BBX 18 24 0 0
BITMAP
001F00
003F00
003E00
003C00
007800
007000
000000
000000
000000
0FFFC0
0FE380
07C180
078100
0F8000
0F8000
0F0000
0F0000
1F0000
1E0000
1E0000
3E0000
3E0000
7F0000
FF0000
ENDCHAR

STARTCHAR afii10101
ENCODING 244
SWIDTH 547 0
DWIDTH 18 0
BBX 16 15 2 0
BITMAP
03F8
0FFC
1F0E
3C03
7C00
7800
F800
FFC0
F000
F000
F00E
F81E
7C3C
3FF8
0FE0
ENDCHAR

STARTCHAR afii10102
ENCODING 245
SWIDTH 490 0
DWIDTH 16 0
BBX 15 15 0 0
BITMAP
03F0
07FC
0E3E
1E1E
1F0E
1F80
0FC0
0FF0
03F8
41F8
F0F8
F078
F878
7CF0
3FE0
ENDCHAR

STARTCHAR afii10103
ENCODING 246
SWIDTH 333 0
DWIDTH 11 0
BBX 12 23 0 0
BITMAP
00E0
01F0
01F0
01F0
00E0
0000
0000
0000
0700
1F80
3F80
6780
C780
0F80
0F00
1F00
1E00
3E00
3E00
3CC0
7D80
7F00
7E00
ENDCHAR

STARTCHAR afii10104
ENCODING 247
SWIDTH 333 0
DWIDTH 11 0
BBX 14 22 0 0
BITMAP
3C3C
3C3C
3C3C
3C3C
0000
0000
0000
0700
1F80
3F80
6780
CF80
0F80
0F00
1F00
1E00
3E00
3E00
7CC0
7D80
7F00
3E00
ENDCHAR

STARTCHAR afii10105
ENCODING 248
SWIDTH 323 0
DWIDTH 11 0
BBX 17 29 -5 -6
BITMAP
000700
000F80
000F80
000F80
000700
000000
000000
000000
003800
00FE00
01FE00
01BE00
033E00
003C00
007C00
007C00
007800
00F800
00F800
00F000
00F000
01F000
01F000
01E000
03E000
63C000
F38000
FF0000
7C0000
ENDCHAR

STARTCHAR afii10106
ENCODING 249
SWIDTH 771 0
DWIDTH 25 0
BBX 24 16 -1 0
BITMAP
0001C0
001FC0
003BC0
006780
00C780
018F80
010F7C
010FFF
031F9F
020F0F
021E0F
061E0F
7E1E1F
FC1E1E
F80F7C
7007F0
ENDCHAR

STARTCHAR afii10107
ENCODING 250
SWIDTH 823 0
DWIDTH 27 0
BBX 24 15 2 0
BITMAP
0F8040
7F1FC0
1F3FC0
1F0780
1E0780
1E0F80
3E0F7E
3FFFFF
3C1F9F
7C1F0F
781E0F
781E0F
F81E1F
F80F3E
F007F8
ENDCHAR

STARTCHAR afii10108
ENCODING 251
SWIDTH 625 0
DWIDTH 21 0
BBX 19 23 1 0
BITMAP
006000
0FE000
1FE000
03C000
03C000
1FFFC0
1FFFC0
078000
0F8000
0F3FC0
0FFFC0
1FC3C0
1F03C0
1E07C0
3E0780
3E0F80
3C0F00
7C1F00
7C1F00
781E60
F83EC0
F83F80
F01E00
ENDCHAR

STARTCHAR afii10109
ENCODING 252
SWIDTH 563 0
DWIDTH 19 0
BBX 17 23 1 0
BITMAP
003F00
003E00
007C00
007800
007000
00E000
000000
000000
038300
7F0780
7F0F80
1F0D00
1F1800
1E3000
1FE000
3FF000
3CF000
3CF800
7C7800
787800
787C00
F83E00
F03E00
ENDCHAR

STARTCHAR section
ENCODING 253
SWIDTH 594 0
DWIDTH 20 0
BBX 21 29 -1 -6
BITMAP
0007F0
001FF8
0038F8
007078
00F000
01B000
01B000
013000
033800
031800
031C00
031C00
030E00
038E00
018600
01C700
01C300
00E300
00E300
006300
007300
003300
003600
003600
002C00
783800
FC7000
FFC000
7F0000
ENDCHAR

STARTCHAR afii10110
ENCODING 254
SWIDTH 552 0
DWIDTH 18 0
BBX 21 29 -3 -6
BITMAP
000800
003C30
003C60
001FC0
000F80
000000
000000
000000
01E070
03E0F8
07F0F8
0DF0F8
09F0F8
00F070
00F870
00F860
00F8E0
0078C0
007D80
007D00
007F00
003E00
003C00
003800
007000
78C000
FF8000
FF0000
7C0000
ENDCHAR

STARTCHAR afii10193
ENCODING 255
SWIDTH 635 0
DWIDTH 21 0
BBX 20 21 0 -6
BITMAP
0701F0
1F81E0
3F83E0
6783E0
4F83C0
0F87C0
1F07C0
1F0F80
1E0F80
3E1780
3E3790
3C6F30
3CCF60
3F8FC0
1F0F80
0C0000
180000
380000
380000
780000
E00000
ENDCHAR
ENDFONT
